G04 DesignSpark PCB Gerber Version 10.0 Build 5299*
G04 #@! TF.Part,Single*
G04 #@! TF.FileFunction,Legend,Bot*
G04 #@! TF.FilePolarity,Positive*
%FSLAX35Y35*%
%MOIN*%
%ADD21C,0.00197*%
%ADD20C,0.00500*%
G04 #@! TD.AperFunction*
X0Y0D02*
D02*
D20*
X8124Y85250D02*
X250D01*
X318557Y164404D02*
X12651D01*
Y6096D01*
X318557D01*
Y164404D01*
X316959Y168417D02*
X316334Y168104D01*
X316022Y167480D01*
X316334Y166854D01*
X316959Y166542D01*
X319147D01*
Y170292D01*
X316959D01*
X316334Y169980D01*
X316022Y169354D01*
X316334Y168730D01*
X316959Y168417D01*
X319147D01*
X314147Y168730D02*
X313522Y169042D01*
X312584D01*
X311959Y168730D01*
X311647Y168104D01*
Y167167D01*
X311959Y166854D01*
X312584Y166542D01*
X313209D01*
X313834Y166854D01*
X314147Y167167D01*
Y167480D01*
X313834Y167792D01*
X313209Y168104D01*
X312584D01*
X311959Y167792D01*
X311647Y167480D01*
Y167167D02*
Y166542D01*
X308626Y169042D02*
X307168D01*
X307897Y169667D02*
Y166854D01*
X307584Y166542D01*
X307272D01*
X306959Y166854D01*
X303626Y169042D02*
X302168D01*
X302897Y169667D02*
Y166854D01*
X302584Y166542D01*
X302272D01*
X301959Y166854D01*
X296647D02*
X296959Y166542D01*
X297584D01*
X298209D01*
X298834Y166854D01*
X299147Y167480D01*
Y168417D01*
X298834Y168730D01*
X298209Y169042D01*
X297584D01*
X296959Y168730D01*
X296647Y168417D01*
Y168104D01*
X296959Y167792D01*
X297584Y167480D01*
X298209D01*
X298834Y167792D01*
X299147Y168104D01*
X294147Y166542D02*
Y169042D01*
Y168104D02*
X293834Y168730D01*
X293209Y169042D01*
X292584D01*
X291959Y168730D01*
X289147Y169042D02*
X288834Y167792D01*
X288209Y167167D01*
X287584D01*
X286959Y167792D01*
X286647Y169042D01*
X286959Y167792D02*
X287272Y166542D01*
X287584Y165917D01*
X288209Y165604D01*
X288834Y165917D01*
X284147Y166542D02*
X281022D01*
X279147D02*
Y170292D01*
Y168417D02*
X276022D01*
Y166542D02*
Y170292D01*
X274147Y167480D02*
X273834Y166854D01*
X273209Y166542D01*
X272584D01*
X271959Y166854D01*
X271647Y167480D01*
Y168104D01*
X271959Y168730D01*
X272584Y169042D01*
X273209D01*
X273834Y168730D01*
X274147Y168104D01*
Y167480D01*
X267584Y166542D02*
X267897D01*
Y170292D01*
X261647Y168104D02*
X261959Y168730D01*
X262584Y169042D01*
X263209D01*
X263834Y168730D01*
X264147Y168104D01*
Y167480D01*
X263834Y166854D01*
X263209Y166542D01*
X262584D01*
X261959Y166854D01*
X261647Y167480D01*
Y166542D02*
Y170292D01*
X256647Y166854D02*
X256959Y166542D01*
X257584D01*
X258209D01*
X258834Y166854D01*
X259147Y167480D01*
Y168417D01*
X258834Y168730D01*
X258209Y169042D01*
X257584D01*
X256959Y168730D01*
X256647Y168417D01*
Y168104D01*
X256959Y167792D01*
X257584Y167480D01*
X258209D01*
X258834Y167792D01*
X259147Y168104D01*
X254147Y166542D02*
Y169042D01*
Y168104D02*
X253834Y168730D01*
X253209Y169042D01*
X252584D01*
X251959Y168730D01*
X327021Y89187D02*
Y81313D01*
X330958Y85250D02*
X323084D01*
D02*
D21*
X319541Y165388D02*
X11667D01*
Y5112D01*
X319541D01*
Y165388D01*
X0Y0D02*
M02*
