G05
M48
;#@! TF.GenerationSoftware,DesignSpark,DesignSpark PCB,10.0.5344
;#@! TF.CreationDate,2022-09-17T19:13:39+06:00*
;#@! TF.FileFunction,Plated,1,2,PTH
;FILE_FORMAT=3:5
;TYPE=PLATED
INCH,TZ
FMAT,2
T1C000.02400
T2C000.03200
T3C000.03500
T4C000.04000
T5C000.06299
T6C000.06496
T7C000.12598
%
T001
X0.70604Y1.55250
X0.90604Y0.25250
X1.10604Y0.35250
X1.20604Y0.30250
X2.15604Y0.25250
X3.10604Y1.55250
T002
X0.23104Y1.12750
X0.78104Y1.12750
X0.80604Y1.27750
X1.10604Y0.15250
X1.10604Y0.45250
X2.05604Y1.12750
X2.05604Y1.27750
X2.25604Y0.45250
T003
X0.70604Y1.45250
X0.80604Y1.45250
X0.90604Y1.45250
X1.65604Y0.35250
X1.75604Y0.35250
X1.85604Y0.35250
X2.05604Y0.35250
X2.15604Y0.35250
X2.25604Y0.35250
X2.65604Y0.65250
X2.75604Y0.65250
X2.85604Y0.65250
X2.95604Y0.65250
T004
X0.95604Y0.60250
X0.95604Y1.20250
X1.05604Y0.60250
X1.05604Y1.20250
X1.15604Y0.60250
X1.15604Y1.20250
X1.25604Y0.60250
X1.25604Y1.20250
X1.35604Y0.60250
X1.35604Y1.20250
X1.45604Y0.60250
X1.45604Y1.20250
X1.55604Y0.60250
X1.55604Y1.20250
X1.65604Y0.60250
X1.65604Y1.20250
X1.75604Y0.60250
X1.75604Y1.20250
X1.85604Y0.60250
X1.85604Y1.20250
X1.95604Y0.60250
X1.95604Y1.20250
X2.05604Y0.60250
X2.05604Y1.20250
X2.15604Y0.60250
X2.15604Y1.20250
X2.25604Y0.60250
X2.25604Y1.20250
X2.35604Y0.60250
X2.35604Y1.20250
T005
X0.22691Y0.47258
X0.22691Y1.23242
X3.09698Y0.47258
X3.09698Y1.23242
T006
X0.85604Y0.60250
X0.85604Y1.20250
X2.45604Y0.60250
X2.45604Y1.20250
T007
X0.56116Y0.47258
X0.56116Y1.23242
X2.75092Y0.47258
X2.75092Y1.23242
M30
