G04 DesignSpark PCB Gerber Version 10.0 Build 5299*
G04 #@! TF.Part,Single*
G04 #@! TF.FilePolarity,Positive*
%FSLAX35Y35*%
%MOIN*%
G04 #@! TA.AperFunction,ViaDrill*
%ADD73C,0.02400*%
%ADD72C,0.03200*%
G04 #@! TA.AperFunction,ComponentDrill*
%ADD76C,0.03500*%
%ADD74C,0.04000*%
%ADD77C,0.06299*%
%ADD75C,0.06496*%
%ADD78C,0.12598*%
G04 #@! TD.AperFunction*
X0Y0D02*
D02*
D72*
X23104Y112750D03*
X78104D03*
X80604Y127750D03*
X110604Y15250D03*
Y45250D03*
X205604Y112750D03*
Y127750D03*
X225604Y45250D03*
D02*
D73*
X70604Y155250D03*
X90604Y25250D03*
X110604Y35250D03*
X120604Y30250D03*
X215604Y25250D03*
X310604Y155250D03*
D02*
D74*
X95604Y60250D03*
Y120250D03*
X105604Y60250D03*
Y120250D03*
X115604Y60250D03*
Y120250D03*
X125604Y60250D03*
Y120250D03*
X135604Y60250D03*
Y120250D03*
X145604Y60250D03*
Y120250D03*
X155604Y60250D03*
Y120250D03*
X165604Y60250D03*
Y120250D03*
X175604Y60250D03*
Y120250D03*
X185604Y60250D03*
Y120250D03*
X195604Y60250D03*
Y120250D03*
X205604Y60250D03*
Y120250D03*
X215604Y60250D03*
Y120250D03*
X225604Y60250D03*
Y120250D03*
X235604Y60250D03*
Y120250D03*
D02*
D75*
X85604Y60250D03*
Y120250D03*
X245604Y60250D03*
Y120250D03*
D02*
D76*
X70604Y145250D03*
X80604D03*
X90604D03*
X165604Y35250D03*
X175604D03*
X185604D03*
X205604D03*
X215604D03*
X225604D03*
X265604Y65250D03*
X275604D03*
X285604D03*
X295604D03*
D02*
D77*
X22691Y47258D03*
Y123242D03*
X309698Y47258D03*
Y123242D03*
D02*
D78*
X56116Y47258D03*
Y123242D03*
X275092Y47258D03*
Y123242D03*
X0Y0D02*
M02*
