G04 DesignSpark PCB Gerber Version 10.0 Build 5299*
G04 #@! TF.Part,Single*
G04 #@! TF.FileFunction,Drillmap*
G04 #@! TF.FilePolarity,Positive*
%FSLAX35Y35*%
%MOIN*%
%ADD20C,0.00500*%
G04 #@! TA.AperFunction,ViaPad*
%ADD79C,0.10000*%
G04 #@! TD.AperFunction*
X0Y0D02*
D02*
D20*
X32691Y53195D02*
Y56945D01*
X35816D01*
X35191Y55070D02*
X32691D01*
Y129180D02*
Y132930D01*
X35816D01*
X35191Y131055D02*
X32691D01*
X33104Y118687D02*
X34667Y122437D01*
X36229Y118687D01*
X33729Y120250D02*
X35604D01*
X68303Y54758D02*
X69241D01*
Y54445D01*
X68928Y53820D01*
X68616Y53508D01*
X67991Y53195D01*
X67366D01*
X66741Y53508D01*
X66428Y53820D01*
X66116Y54445D01*
Y55695D01*
X66428Y56320D01*
X66741Y56633D01*
X67366Y56945D01*
X67991D01*
X68616Y56633D01*
X68928Y56320D01*
X69241Y55695D01*
X68303Y130742D02*
X69241D01*
Y130430D01*
X68928Y129805D01*
X68616Y129492D01*
X67991Y129180D01*
X67366D01*
X66741Y129492D01*
X66428Y129805D01*
X66116Y130430D01*
Y131680D01*
X66428Y132305D01*
X66741Y132617D01*
X67366Y132930D01*
X67991D01*
X68616Y132617D01*
X68928Y132305D01*
X69241Y131680D01*
X80604Y151187D02*
Y154937D01*
X83729D01*
X83104Y153063D02*
X80604D01*
Y151187D02*
X83729D01*
X82791Y163063D02*
X83417Y162750D01*
X83729Y162125D01*
X83417Y161500D01*
X82791Y161187D01*
X80604D01*
Y164937D01*
X82791D01*
X83417Y164625D01*
X83729Y164000D01*
X83417Y163375D01*
X82791Y163063D01*
X80604D01*
X88104Y118687D02*
X89667Y122437D01*
X91229Y118687D01*
X88729Y120250D02*
X90604D01*
Y133687D02*
X92167Y137437D01*
X93729Y133687D01*
X91229Y135250D02*
X93104D01*
X90604Y151187D02*
Y154937D01*
X93729D01*
X93104Y153063D02*
X90604D01*
Y151187D02*
X93729D01*
X95604Y66187D02*
Y69937D01*
X97479D01*
X98104Y69625D01*
X98417Y69313D01*
X98729Y68687D01*
Y67437D01*
X98417Y66813D01*
X98104Y66500D01*
X97479Y66187D01*
X95604D01*
Y126187D02*
Y129937D01*
X97479D01*
X98104Y129625D01*
X98417Y129313D01*
X98729Y128687D01*
Y127437D01*
X98417Y126813D01*
X98104Y126500D01*
X97479Y126187D01*
X95604D01*
X102791Y33063D02*
X103417Y32750D01*
X103729Y32125D01*
X103417Y31500D01*
X102791Y31187D01*
X100604D01*
Y34937D01*
X102791D01*
X103417Y34625D01*
X103729Y34000D01*
X103417Y33375D01*
X102791Y33063D01*
X100604D01*
Y151187D02*
Y154937D01*
X103729D01*
X103104Y153063D02*
X100604D01*
Y151187D02*
X103729D01*
X108729Y66813D02*
X108417Y66500D01*
X107791Y66187D01*
X106854D01*
X106229Y66500D01*
X105917Y66813D01*
X105604Y67437D01*
Y68687D01*
X105917Y69313D01*
X106229Y69625D01*
X106854Y69937D01*
X107791D01*
X108417Y69625D01*
X108729Y69313D01*
Y126813D02*
X108417Y126500D01*
X107791Y126187D01*
X106854D01*
X106229Y126500D01*
X105917Y126813D01*
X105604Y127437D01*
Y128687D01*
X105917Y129313D01*
X106229Y129625D01*
X106854Y129937D01*
X107791D01*
X108417Y129625D01*
X108729Y129313D01*
X118729Y66813D02*
X118417Y66500D01*
X117791Y66187D01*
X116854D01*
X116229Y66500D01*
X115917Y66813D01*
X115604Y67437D01*
Y68687D01*
X115917Y69313D01*
X116229Y69625D01*
X116854Y69937D01*
X117791D01*
X118417Y69625D01*
X118729Y69313D01*
Y126813D02*
X118417Y126500D01*
X117791Y126187D01*
X116854D01*
X116229Y126500D01*
X115917Y126813D01*
X115604Y127437D01*
Y128687D01*
X115917Y129313D01*
X116229Y129625D01*
X116854Y129937D01*
X117791D01*
X118417Y129625D01*
X118729Y129313D01*
X120604Y21187D02*
X122167Y24937D01*
X123729Y21187D01*
X121229Y22750D02*
X123104D01*
X122791Y43063D02*
X123417Y42750D01*
X123729Y42125D01*
X123417Y41500D01*
X122791Y41187D01*
X120604D01*
Y44937D01*
X122791D01*
X123417Y44625D01*
X123729Y44000D01*
X123417Y43375D01*
X122791Y43063D01*
X120604D01*
Y51187D02*
X122167Y54937D01*
X123729Y51187D01*
X121229Y52750D02*
X123104D01*
X128729Y66813D02*
X128417Y66500D01*
X127791Y66187D01*
X126854D01*
X126229Y66500D01*
X125917Y66813D01*
X125604Y67437D01*
Y68687D01*
X125917Y69313D01*
X126229Y69625D01*
X126854Y69937D01*
X127791D01*
X128417Y69625D01*
X128729Y69313D01*
Y126813D02*
X128417Y126500D01*
X127791Y126187D01*
X126854D01*
X126229Y126500D01*
X125917Y126813D01*
X125604Y127437D01*
Y128687D01*
X125917Y129313D01*
X126229Y129625D01*
X126854Y129937D01*
X127791D01*
X128417Y129625D01*
X128729Y129313D01*
X132791Y38063D02*
X133417Y37750D01*
X133729Y37125D01*
X133417Y36500D01*
X132791Y36187D01*
X130604D01*
Y39937D01*
X132791D01*
X133417Y39625D01*
X133729Y39000D01*
X133417Y38375D01*
X132791Y38063D01*
X130604D01*
X138729Y66813D02*
X138417Y66500D01*
X137791Y66187D01*
X136854D01*
X136229Y66500D01*
X135917Y66813D01*
X135604Y67437D01*
Y68687D01*
X135917Y69313D01*
X136229Y69625D01*
X136854Y69937D01*
X137791D01*
X138417Y69625D01*
X138729Y69313D01*
Y126813D02*
X138417Y126500D01*
X137791Y126187D01*
X136854D01*
X136229Y126500D01*
X135917Y126813D01*
X135604Y127437D01*
Y128687D01*
X135917Y129313D01*
X136229Y129625D01*
X136854Y129937D01*
X137791D01*
X138417Y129625D01*
X138729Y129313D01*
X148729Y66813D02*
X148417Y66500D01*
X147791Y66187D01*
X146854D01*
X146229Y66500D01*
X145917Y66813D01*
X145604Y67437D01*
Y68687D01*
X145917Y69313D01*
X146229Y69625D01*
X146854Y69937D01*
X147791D01*
X148417Y69625D01*
X148729Y69313D01*
Y126813D02*
X148417Y126500D01*
X147791Y126187D01*
X146854D01*
X146229Y126500D01*
X145917Y126813D01*
X145604Y127437D01*
Y128687D01*
X145917Y129313D01*
X146229Y129625D01*
X146854Y129937D01*
X147791D01*
X148417Y129625D01*
X148729Y129313D01*
X158729Y66813D02*
X158417Y66500D01*
X157791Y66187D01*
X156854D01*
X156229Y66500D01*
X155917Y66813D01*
X155604Y67437D01*
Y68687D01*
X155917Y69313D01*
X156229Y69625D01*
X156854Y69937D01*
X157791D01*
X158417Y69625D01*
X158729Y69313D01*
Y126813D02*
X158417Y126500D01*
X157791Y126187D01*
X156854D01*
X156229Y126500D01*
X155917Y126813D01*
X155604Y127437D01*
Y128687D01*
X155917Y129313D01*
X156229Y129625D01*
X156854Y129937D01*
X157791D01*
X158417Y129625D01*
X158729Y129313D01*
X168729Y66813D02*
X168417Y66500D01*
X167791Y66187D01*
X166854D01*
X166229Y66500D01*
X165917Y66813D01*
X165604Y67437D01*
Y68687D01*
X165917Y69313D01*
X166229Y69625D01*
X166854Y69937D01*
X167791D01*
X168417Y69625D01*
X168729Y69313D01*
Y126813D02*
X168417Y126500D01*
X167791Y126187D01*
X166854D01*
X166229Y126500D01*
X165917Y126813D01*
X165604Y127437D01*
Y128687D01*
X165917Y129313D01*
X166229Y129625D01*
X166854Y129937D01*
X167791D01*
X168417Y129625D01*
X168729Y129313D01*
X175604Y41187D02*
Y44937D01*
X178729D01*
X178104Y43063D02*
X175604D01*
Y41187D02*
X178729D01*
Y66813D02*
X178417Y66500D01*
X177791Y66187D01*
X176854D01*
X176229Y66500D01*
X175917Y66813D01*
X175604Y67437D01*
Y68687D01*
X175917Y69313D01*
X176229Y69625D01*
X176854Y69937D01*
X177791D01*
X178417Y69625D01*
X178729Y69313D01*
Y126813D02*
X178417Y126500D01*
X177791Y126187D01*
X176854D01*
X176229Y126500D01*
X175917Y126813D01*
X175604Y127437D01*
Y128687D01*
X175917Y129313D01*
X176229Y129625D01*
X176854Y129937D01*
X177791D01*
X178417Y129625D01*
X178729Y129313D01*
X185604Y41187D02*
Y44937D01*
X188729D01*
X188104Y43063D02*
X185604D01*
Y41187D02*
X188729D01*
Y66813D02*
X188417Y66500D01*
X187791Y66187D01*
X186854D01*
X186229Y66500D01*
X185917Y66813D01*
X185604Y67437D01*
Y68687D01*
X185917Y69313D01*
X186229Y69625D01*
X186854Y69937D01*
X187791D01*
X188417Y69625D01*
X188729Y69313D01*
Y126813D02*
X188417Y126500D01*
X187791Y126187D01*
X186854D01*
X186229Y126500D01*
X185917Y126813D01*
X185604Y127437D01*
Y128687D01*
X185917Y129313D01*
X186229Y129625D01*
X186854Y129937D01*
X187791D01*
X188417Y129625D01*
X188729Y129313D01*
X195604Y41187D02*
Y44937D01*
X198729D01*
X198104Y43063D02*
X195604D01*
Y41187D02*
X198729D01*
Y66813D02*
X198417Y66500D01*
X197791Y66187D01*
X196854D01*
X196229Y66500D01*
X195917Y66813D01*
X195604Y67437D01*
Y68687D01*
X195917Y69313D01*
X196229Y69625D01*
X196854Y69937D01*
X197791D01*
X198417Y69625D01*
X198729Y69313D01*
Y126813D02*
X198417Y126500D01*
X197791Y126187D01*
X196854D01*
X196229Y126500D01*
X195917Y126813D01*
X195604Y127437D01*
Y128687D01*
X195917Y129313D01*
X196229Y129625D01*
X196854Y129937D01*
X197791D01*
X198417Y129625D01*
X198729Y129313D01*
X208729Y66813D02*
X208417Y66500D01*
X207791Y66187D01*
X206854D01*
X206229Y66500D01*
X205917Y66813D01*
X205604Y67437D01*
Y68687D01*
X205917Y69313D01*
X206229Y69625D01*
X206854Y69937D01*
X207791D01*
X208417Y69625D01*
X208729Y69313D01*
Y126813D02*
X208417Y126500D01*
X207791Y126187D01*
X206854D01*
X206229Y126500D01*
X205917Y126813D01*
X205604Y127437D01*
Y128687D01*
X205917Y129313D01*
X206229Y129625D01*
X206854Y129937D01*
X207791D01*
X208417Y129625D01*
X208729Y129313D01*
X215604Y41187D02*
Y44937D01*
X218729D01*
X218104Y43063D02*
X215604D01*
Y41187D02*
X218729D01*
Y66813D02*
X218417Y66500D01*
X217791Y66187D01*
X216854D01*
X216229Y66500D01*
X215917Y66813D01*
X215604Y67437D01*
Y68687D01*
X215917Y69313D01*
X216229Y69625D01*
X216854Y69937D01*
X217791D01*
X218417Y69625D01*
X218729Y69313D01*
X215604Y118687D02*
X217167Y122437D01*
X218729Y118687D01*
X216229Y120250D02*
X218104D01*
X218729Y126813D02*
X218417Y126500D01*
X217791Y126187D01*
X216854D01*
X216229Y126500D01*
X215917Y126813D01*
X215604Y127437D01*
Y128687D01*
X215917Y129313D01*
X216229Y129625D01*
X216854Y129937D01*
X217791D01*
X218417Y129625D01*
X218729Y129313D01*
X215604Y133687D02*
X217167Y137437D01*
X218729Y133687D01*
X216229Y135250D02*
X218104D01*
X227791Y33063D02*
X228417Y32750D01*
X228729Y32125D01*
X228417Y31500D01*
X227791Y31187D01*
X225604D01*
Y34937D01*
X227791D01*
X228417Y34625D01*
X228729Y34000D01*
X228417Y33375D01*
X227791Y33063D01*
X225604D01*
Y41187D02*
Y44937D01*
X228729D01*
X228104Y43063D02*
X225604D01*
Y41187D02*
X228729D01*
Y66813D02*
X228417Y66500D01*
X227791Y66187D01*
X226854D01*
X226229Y66500D01*
X225917Y66813D01*
X225604Y67437D01*
Y68687D01*
X225917Y69313D01*
X226229Y69625D01*
X226854Y69937D01*
X227791D01*
X228417Y69625D01*
X228729Y69313D01*
Y126813D02*
X228417Y126500D01*
X227791Y126187D01*
X226854D01*
X226229Y126500D01*
X225917Y126813D01*
X225604Y127437D01*
Y128687D01*
X225917Y129313D01*
X226229Y129625D01*
X226854Y129937D01*
X227791D01*
X228417Y129625D01*
X228729Y129313D01*
X235604Y41187D02*
Y44937D01*
X238729D01*
X238104Y43063D02*
X235604D01*
Y41187D02*
X238729D01*
X235604Y51187D02*
X237167Y54937D01*
X238729Y51187D01*
X236229Y52750D02*
X238104D01*
X238729Y66813D02*
X238417Y66500D01*
X237791Y66187D01*
X236854D01*
X236229Y66500D01*
X235917Y66813D01*
X235604Y67437D01*
Y68687D01*
X235917Y69313D01*
X236229Y69625D01*
X236854Y69937D01*
X237791D01*
X238417Y69625D01*
X238729Y69313D01*
Y126813D02*
X238417Y126500D01*
X237791Y126187D01*
X236854D01*
X236229Y126500D01*
X235917Y126813D01*
X235604Y127437D01*
Y128687D01*
X235917Y129313D01*
X236229Y129625D01*
X236854Y129937D01*
X237791D01*
X238417Y129625D01*
X238729Y129313D01*
X248729Y66813D02*
X248417Y66500D01*
X247791Y66187D01*
X246854D01*
X246229Y66500D01*
X245917Y66813D01*
X245604Y67437D01*
Y68687D01*
X245917Y69313D01*
X246229Y69625D01*
X246854Y69937D01*
X247791D01*
X248417Y69625D01*
X248729Y69313D01*
Y126813D02*
X248417Y126500D01*
X247791Y126187D01*
X246854D01*
X246229Y126500D01*
X245917Y126813D01*
X245604Y127437D01*
Y128687D01*
X245917Y129313D01*
X246229Y129625D01*
X246854Y129937D01*
X247791D01*
X248417Y129625D01*
X248729Y129313D01*
X255604Y66187D02*
Y69937D01*
X257479D01*
X258104Y69625D01*
X258417Y69313D01*
X258729Y68687D01*
Y67437D01*
X258417Y66813D01*
X258104Y66500D01*
X257479Y66187D01*
X255604D01*
Y126187D02*
Y129937D01*
X257479D01*
X258104Y129625D01*
X258417Y129313D01*
X258729Y128687D01*
Y127437D01*
X258417Y126813D01*
X258104Y126500D01*
X257479Y126187D01*
X255604D01*
X275604Y71187D02*
Y74937D01*
X278729D01*
X278104Y73063D02*
X275604D01*
Y71187D02*
X278729D01*
X287280Y54758D02*
X288217D01*
Y54445D01*
X287905Y53820D01*
X287592Y53508D01*
X286967Y53195D01*
X286342D01*
X285717Y53508D01*
X285405Y53820D01*
X285092Y54445D01*
Y55695D01*
X285405Y56320D01*
X285717Y56633D01*
X286342Y56945D01*
X286967D01*
X287592Y56633D01*
X287905Y56320D01*
X288217Y55695D01*
X287280Y130742D02*
X288217D01*
Y130430D01*
X287905Y129805D01*
X287592Y129492D01*
X286967Y129180D01*
X286342D01*
X285717Y129492D01*
X285405Y129805D01*
X285092Y130430D01*
Y131680D01*
X285405Y132305D01*
X285717Y132617D01*
X286342Y132930D01*
X286967D01*
X287592Y132617D01*
X287905Y132305D01*
X288217Y131680D01*
X285604Y71187D02*
Y74937D01*
X288729D01*
X288104Y73063D02*
X285604D01*
Y71187D02*
X288729D01*
X295604D02*
Y74937D01*
X298729D01*
X298104Y73063D02*
X295604D01*
Y71187D02*
X298729D01*
X305604D02*
Y74937D01*
X308729D01*
X308104Y73063D02*
X305604D01*
Y71187D02*
X308729D01*
X319698Y53195D02*
Y56945D01*
X322824D01*
X322198Y55070D02*
X319698D01*
Y129180D02*
Y132930D01*
X322824D01*
X322198Y131055D02*
X319698D01*
X322791Y163063D02*
X323417Y162750D01*
X323729Y162125D01*
X323417Y161500D01*
X322791Y161187D01*
X320604D01*
Y164937D01*
X322791D01*
X323417Y164625D01*
X323729Y164000D01*
X323417Y163375D01*
X322791Y163063D01*
X320604D01*
D02*
D79*
X22691Y47258D03*
Y123242D03*
X23104Y112750D03*
X56116Y47258D03*
Y123242D03*
X70604Y145250D03*
Y155250D03*
X78104Y112750D03*
X80604Y127750D03*
Y145250D03*
X85604Y60250D03*
Y120250D03*
X90604Y25250D03*
Y145250D03*
X95604Y60250D03*
Y120250D03*
X105604Y60250D03*
Y120250D03*
X110604Y15250D03*
Y35250D03*
Y45250D03*
X115604Y60250D03*
Y120250D03*
X120604Y30250D03*
X125604Y60250D03*
Y120250D03*
X135604Y60250D03*
Y120250D03*
X145604Y60250D03*
Y120250D03*
X155604Y60250D03*
Y120250D03*
X165604Y35250D03*
Y60250D03*
Y120250D03*
X175604Y35250D03*
Y60250D03*
Y120250D03*
X185604Y35250D03*
Y60250D03*
Y120250D03*
X195604Y60250D03*
Y120250D03*
X205604Y35250D03*
Y60250D03*
Y112750D03*
Y120250D03*
Y127750D03*
X215604Y25250D03*
Y35250D03*
Y60250D03*
Y120250D03*
X225604Y35250D03*
Y45250D03*
Y60250D03*
Y120250D03*
X235604Y60250D03*
Y120250D03*
X245604Y60250D03*
Y120250D03*
X265604Y65250D03*
X275092Y47258D03*
Y123242D03*
X275604Y65250D03*
X285604D03*
X295604D03*
X309698Y47258D03*
Y123242D03*
X310604Y155250D03*
X0Y0D02*
M02*
